<?xml version="1.0" encoding="UTF-8" standalone="no"?>
<svg
   xmlns:dc="http://purl.org/dc/elements/1.1/"
   xmlns:cc="http://creativecommons.org/ns#"
   xmlns:rdf="http://www.w3.org/1999/02/22-rdf-syntax-ns#"
   xmlns:svg="http://www.w3.org/2000/svg"
   xmlns="http://www.w3.org/2000/svg"
   xmlns:sodipodi="http://sodipodi.sourceforge.net/DTD/sodipodi-0.dtd"
   xmlns:inkscape="http://www.inkscape.org/namespaces/inkscape"
   sodipodi:docname="logo.svg"
   inkscape:version="1.0 (4035a4fb49, 2020-05-01)"
   id="svg8"
   version="1.1"
   viewBox="0 0 210 297"
   height="297mm"
   width="210mm">
  <defs
     id="defs2">
    <clipPath
       clipPathUnits="userSpaceOnUse"
       id="clipPath3748">
      <path
         d="M 0,841.89 H 595.28 V 0 H 0 Z"
         id="path3746"
         inkscape:connector-curvature="0" />
    </clipPath>
  </defs>
  <sodipodi:namedview
     inkscape:document-rotation="0"
     inkscape:window-maximized="1"
     inkscape:window-y="111"
     inkscape:window-x="1740"
     inkscape:window-height="1016"
     inkscape:window-width="1860"
     showgrid="false"
     inkscape:current-layer="g3744"
     inkscape:document-units="mm"
     inkscape:cy="523.27396"
     inkscape:cx="223.91708"
     inkscape:zoom="0.7"
     inkscape:pageshadow="2"
     inkscape:pageopacity="0.0"
     borderopacity="1.0"
     bordercolor="#666666"
     pagecolor="#ffffff"
     id="base" />
  <metadata
     id="metadata5">
    <rdf:RDF>
      <cc:Work
         rdf:about="">
        <dc:format>image/svg+xml</dc:format>
        <dc:type
           rdf:resource="http://purl.org/dc/dcmitype/StillImage" />
        <dc:title />
      </cc:Work>
    </rdf:RDF>
  </metadata>
  <g
     id="layer1"
     inkscape:groupmode="layer"
     inkscape:label="Calque 1">
    <g
       id="g3740"
       inkscape:label="pdf"
       transform="matrix(0.43538205,0,0,-0.43538205,-23.692794,298.38259)">
      <g
         id="g3742">
        <g
           id="g3744"
           clip-path="url(#clipPath3748)">
          <g
             id="g3754"
             transform="translate(328.4603,147.1933)">
            <path
               d="M 0,0 C 10.991,-3.087 21.343,-5.994 32.958,-9.256 30.727,-0.973 28.913,5.761 27.319,11.681 18.143,7.758 9.864,4.218 0,0 m -78.861,147.188 c -0.019,-16.693 -0.451,-31.253 3.442,-46.884 7.048,8.682 12.701,15.645 18.512,22.803 -6.687,7.335 -13.516,14.826 -21.954,24.081 M 5.761,48.452 c -13.573,16.555 -27.147,33.109 -40.72,49.663 -3.423,4.211 -6.846,8.421 -9.417,11.584 -3.208,-2.441 -5.82,-3.843 -7.669,-5.928 -15.839,-17.858 -16.726,-48.762 -1.999,-64.583 1.207,-1.478 2.415,-2.957 3.622,-4.436 C -37.76,15.807 -2.725,9.627 18.001,28.704 13.982,35.189 9.871,41.821 5.761,48.452 m -113.19,139.532 c -0.859,3.24 -3.321,5.867 -4.776,8.809 -7.19,14.542 -16.969,28.239 -21.579,43.53 -9.858,32.707 -15.178,66.019 -9.067,100.83 6.319,35.998 19.786,68.846 37.896,99.898 8.864,15.199 20.391,28.837 30.806,43.114 4.946,6.78 10.008,13.482 15.222,20.056 2.363,2.977 5.225,5.555 7.861,8.314 0.575,-0.436 1.151,-0.872 1.726,-1.308 -3.097,-6.631 -6.179,-13.269 -9.294,-19.891 -6.367,-13.531 -13.457,-26.769 -18.973,-40.641 -9.712,-24.424 -14.672,-50.003 -17.764,-76.173 -3.066,-25.954 0.81,-50.972 6.197,-76.003 5.527,-25.678 15.167,-49.897 27.183,-73.14 1.649,-3.19 3.655,-4.601 6.03,-8.226 4,-7.625 8.709,-11.625 10.715,-16.684 1.578,-2.244 2.489,-4.804 4.067,-7.048 1.234,-1.836 1.428,-3.563 2.333,-5.213 0.054,-1.669 2.655,-3.369 2.709,-5.038 0.818,-0.645 1.337,-1.087 1.91,-1.905 17.979,-25.647 36.629,-50.858 53.625,-77.149 13.2,-20.419 24.938,-42.043 30.288,-66.124 3.736,-16.821 5.672,-34.045 8.412,-51.09 -0.491,-8.936 -0.981,-17.873 -1.472,-26.809 -0.596,-5.063 -1.191,-10.127 -1.786,-15.191 -0.291,-1.919 0.048,-4.712 0,-5.491 -0.366,-6 -0.048,-7.314 -0.881,-9.878 -1.283,-3.956 -2.858,-7.819 -4.31,-11.721 -0.474,-1.145 -0.948,-2.289 -1.423,-3.434 -4.19,-10.826 -8.2,-21.672 -12.39,-32.498 -0.593,-0.349 -0.906,-0.16 -0.343,0.135 3.423,8.844 6.014,18.631 5.416,31.043 -0.123,2.564 0.835,8.04 1.085,10.915 0.328,6.22 0.97,10.236 0.982,15.962 0.012,2.749 0.024,5.497 0.035,8.246 0,5.177 0,10.353 10e-4,15.53 -0.705,2.282 -1.41,4.565 -2.115,6.848 -3.708,2.291 -7.163,5.868 -11.165,6.664 -26.796,5.326 -52.278,14.927 -75.213,29.097 -27.983,17.29 -39.237,46.675 -47.264,77.294 -6.409,24.448 -5.15,49.373 -5.182,74.236 0.054,4.544 0.108,9.088 0.161,13.632 -3.925,5.212 -5.738,11.29 -9.663,16.502"
               style="fill:#161617;fill-opacity:1;fill-rule:nonzero;stroke:none"
               id="path3756"
               inkscape:connector-curvature="0" />
          </g>
          <g
             id="g3758"
             transform="translate(230.5374,304.9082)">
            <path
               d="m 0,0 c 0.032,-24.863 -1.228,-49.788 5.181,-74.236 8.027,-30.619 19.281,-60.004 47.265,-77.294 22.935,-14.171 48.417,-23.771 75.212,-29.097 4.003,-0.796 7.458,-4.373 11.166,-6.664 -2.222,-1.718 -4.444,-3.436 -6.666,-5.154 L 96.782,-206.16 c -18.744,-2.861 -37.422,-3.384 -55.948,1.571 -10.701,4.674 -21.402,9.349 -32.103,14.024 -16.888,11.335 -29.998,26.248 -40.72,43.422 -3.341,8.191 -6.683,16.382 -10.025,24.573 -4.517,20.962 -4.167,41.912 0.15,62.853 3.321,8.157 6.642,16.314 9.963,24.471 1.759,2.518 3.247,5.293 5.326,7.508 C -17.813,-18.401 -8.874,-9.231 0,0"
               style="fill:#fbfbfb;fill-opacity:1;fill-rule:nonzero;stroke:none"
               id="path3760"
               inkscape:connector-curvature="0" />
          </g>
          <g
             id="g3762"
             transform="translate(386.27,133.9605)">
            <path
               d="m 0,0 c -2.74,17.044 -4.676,34.269 -8.412,51.089 -5.35,24.082 -17.088,45.705 -30.288,66.125 -16.996,26.291 -35.646,51.502 -53.625,77.148 -0.573,0.818 -0.71,1.281 -1.528,1.926 11.803,-0.603 22.713,-1.176 34.516,-1.779 10.273,-4.005 20.545,-8.011 30.817,-12.016 21.414,-12.717 37.589,-30.423 49.356,-52.328 2.69,-7.974 5.38,-15.949 8.07,-23.924 0.627,-3.96 1.253,-7.92 1.879,-11.88 0.499,-3.139 1.472,-6.29 1.397,-9.416 C 32.038,78.945 31.3,72.96 30.809,66.969 30.21,62.451 29.611,57.934 29.011,53.416 26.307,45.432 23.602,37.448 20.898,29.463 13.932,19.642 6.966,9.821 0,0"
               style="fill:#fbfbfb;fill-opacity:1;fill-rule:nonzero;stroke:none"
               id="path3764"
               inkscape:connector-curvature="0" />
          </g>
          <g
             id="g3766"
             transform="translate(327.3189,98.7487)">
            <path
               d="m 0,0 c 11.792,4.572 23.585,9.143 35.377,13.715 2.927,-0.565 5.853,-1.13 8.78,-1.695 -10e-4,-5.176 -10e-4,-10.352 -10e-4,-15.529 -7.475,1.079 -14.929,2.557 -22.442,2.992 -2.168,0.126 -5.164,-2.261 -6.667,-4.318 -14.183,-19.398 -26.895,-39.668 -35.9,-62.127 -1.61,-4.017 -4.492,-7.519 -7.931,-13.123 -4.918,9.948 -8.454,18.371 -13.059,26.155 -9.989,16.885 -20.389,33.531 -31.01,50.021 -1.316,2.043 -5.178,3.885 -7.555,3.56 -25.334,-3.47 -50.058,-9.375 -73.666,-19.592 -2.662,-1.153 -6.201,-0.26 -9.333,-0.315 0.289,2.929 -0.009,6.073 0.96,8.755 9.66,26.743 18.57,53.622 20.136,82.391 0.233,4.285 2.298,8.469 3.516,12.699 3.341,-8.191 6.683,-16.382 10.024,-24.574 -0.474,-3.029 -0.802,-6.089 -1.447,-9.079 -3.466,-16.091 -7.011,-32.165 -10.529,-48.246 -0.12,-0.191 -0.239,-0.382 -0.358,-0.574 0.109,0.201 0.219,0.402 0.329,0.603 13.455,3.276 26.928,6.475 40.352,9.872 4.193,1.061 8.253,2.654 12.373,4.003 10.701,-4.675 21.403,-9.349 32.104,-14.024 9.004,-15.712 18.007,-31.423 27.532,-48.043 C -18.388,-30.073 -9.194,-15.037 0,0"
               style="fill:#40494c;fill-opacity:1;fill-rule:nonzero;stroke:none"
               id="path3768"
               inkscape:connector-curvature="0" />
          </g>
          <g
             id="g3770"
             transform="translate(358.0419,316.4536)">
            <path
               d="m 0,0 c -10.272,4.005 -20.545,8.011 -30.817,12.016 -1.997,3.609 -3.888,7.282 -6.011,10.816 -7.261,12.086 -14.603,24.123 -22.38,36.947 -5.542,-10.187 -10.579,-19.446 -15.616,-28.706 -2.885,4.182 -9.385,13.64 -9.768,14.938 6.69,12.422 14.601,26.989 21.375,39.365 1.001,1.83 2.588,3.337 3.905,4.993 1.548,-1.412 3.652,-2.535 4.555,-4.283 6.555,-12.701 12.282,-25.87 19.43,-38.213 6.63,-11.448 14.557,-22.157 22.301,-32.909 0.994,-1.38 4.408,-1.705 6.561,-1.427 24.917,3.219 49.025,9.61 72.399,18.896 3.122,1.24 6.669,1.4 11.559,2.363 -7.576,-26.715 -14.605,-51.501 -21.651,-76.347 -11.513,2.777 -13.52,5.89 -10.467,18.308 2.676,10.883 5.514,21.725 8.507,33.476 C 35.419,6.726 17.709,3.363 0,0"
               style="fill:#3f484b;fill-opacity:1;fill-rule:nonzero;stroke:none"
               id="path3772"
               inkscape:connector-curvature="0" />
          </g>
          <g
             id="g3774"
             transform="translate(407.4597,163.424)">
            <path
               d="m 0,0 c 2.704,7.984 5.409,15.968 8.113,23.953 7.818,4.773 15.625,9.563 23.456,14.314 6.743,4.091 13.513,8.136 20.857,12.555 C 42.92,56.434 34.54,61.414 26.127,66.337 20.111,69.857 14.05,73.3 8.008,76.778 5.318,84.753 2.628,92.727 -0.062,100.702 5.429,97.481 11.343,94.81 16.336,90.941 34.22,77.083 53.694,66.189 74.465,57.403 77.532,56.105 79.779,52.85 82.406,50.501 79.921,48.576 77.689,46.099 74.911,44.814 50.03,33.309 26.206,20.137 5.385,1.974 4.037,0.798 1.815,0.635 0,0"
               style="fill:#40494c;fill-opacity:1;fill-rule:nonzero;stroke:none"
               id="path3776"
               inkscape:connector-curvature="0" />
          </g>
          <g
             id="g3778"
             transform="translate(198.6359,269.6623)">
            <path
               d="m 0,0 c -3.321,-8.157 -6.642,-16.314 -9.963,-24.471 -1.411,6.46 -2.854,12.914 -4.229,19.383 -3.894,18.319 -7.414,36.729 -11.796,54.93 -1.96,8.14 -5.738,15.827 -8.441,23.804 -0.665,1.963 -0.353,4.261 -0.49,6.405 2.104,0.089 4.391,0.768 6.284,0.176 16.347,-5.11 36.322,-11.732 52.62,-17 3.926,-5.209 4.152,-9.137 8.077,-14.348 C 17.621,51.663 3.18,54.447 -12.157,57.404 -9.899,48.08 -7.391,38.66 -5.374,29.136 -3.33,19.478 -1.771,9.716 0,0"
               style="fill:#40494c;fill-opacity:1;fill-rule:nonzero;stroke:none"
               id="path3780"
               inkscape:connector-curvature="0" />
          </g>
          <g
             id="g3782"
             transform="translate(106.2016,214.159)">
            <path
               d="M 0,0 C 24.059,13.431 47.202,26.35 71.309,39.808 80.768,34.858 81.254,29.581 70.725,23.046 60.012,16.396 48.97,10.282 38.122,3.85 36.499,2.888 35.147,1.467 33.423,0.057 46.1,-8.001 58.408,-15.601 70.479,-23.564 80.82,-30.386 80.7,-30.57 71.844,-39.803 48.237,-26.725 24.69,-13.679 0,0"
               style="fill:#3f484b;fill-opacity:1;fill-rule:nonzero;stroke:none"
               id="path3784"
               inkscape:connector-curvature="0" />
          </g>
          <g
             id="g3786"
             transform="translate(383.3041,91.96)">
            <path
               d="m 0,0 c 0.595,5.064 1.19,10.128 1.786,15.191 8.377,-2.041 16.753,-4.081 25.84,-6.294 -2.568,12 -5,23.722 -7.601,35.406 -2.167,9.735 0.562,14.34 10.578,17.697 5.009,-18.129 9.942,-36.291 15.085,-54.393 1.381,-4.862 3.716,-9.457 4.997,-14.338 0.625,-2.379 -0.167,-5.134 -0.317,-7.718 -2.382,0.394 -4.86,0.49 -7.129,1.232 C 30.207,-8.956 17.234,-4.51 4.208,-0.228 2.919,0.196 1.408,-0.06 0,0"
               style="fill:#3f484b;fill-opacity:1;fill-rule:nonzero;stroke:none"
               id="path3788"
               inkscape:connector-curvature="0" />
          </g>
          <g
             id="g3790"
             transform="translate(168.8118,304.6515)">
            <path
               d="M 0,0 C 2.112,-10.562 4.306,-21.108 6.302,-31.692 7.275,-36.849 5.767,-40.892 1.011,-43.913 -7.883,-49.561 -16.506,-55.64 -27.357,-62.968 -22.78,-38.365 -14.414,-18.211 0,0"
               style="fill:#f7f7f7;fill-opacity:1;fill-rule:nonzero;stroke:none"
               id="path3792"
               inkscape:connector-curvature="0" />
          </g>
          <g
             id="g3794"
             transform="translate(456.5164,186.4111)">
            <path
               d="m 0,0 c -3.533,-24.38 -12.758,-44.092 -26.136,-64.729 -2.369,11.043 -3.789,20.451 -6.494,29.469 -2.622,8.744 -0.104,14.156 7.515,18.612 C -17.017,-11.912 -9.425,-6.305 0,0"
               style="fill:#f7f7f7;fill-opacity:1;fill-rule:nonzero;stroke:none"
               id="path3796"
               inkscape:connector-curvature="0" />
          </g>
          <g
             id="g3798"
             transform="translate(142.9186,185.6736)">
            <path
               d="m 0,0 c 9.624,-6.541 18.978,-12.386 27.654,-19.115 2.534,-1.966 4.742,-6.661 4.336,-9.737 C 30.511,-40.063 27.864,-51.118 25.587,-62.584 14.048,-50.925 -0.703,-15.269 0,0"
               style="fill:#f7f7f7;fill-opacity:1;fill-rule:nonzero;stroke:none"
               id="path3800"
               inkscape:connector-curvature="0" />
          </g>
          <g
             id="g3802"
             transform="translate(206.9474,82.6067)">
            <path
               d="M 0,0 C 14.553,2.734 26.99,5.136 39.469,7.291 40.476,7.465 42.152,6.21 42.877,5.169 49.844,-4.845 56.673,-14.955 64.841,-26.946 40.344,-22.626 20.413,-14.283 0,0"
               style="fill:#f7f7f7;fill-opacity:1;fill-rule:nonzero;stroke:none"
               id="path3804"
               inkscape:connector-curvature="0" />
          </g>
          <g
             id="g3806"
             transform="translate(456.6036,241.7885)">
            <path
               d="m 0,0 c -11.41,7.756 -20.982,14.001 -30.197,20.739 -1.93,1.411 -3.888,4.858 -3.541,6.99 1.911,11.74 4.532,23.363 7.354,37.205 C -12.717,44.458 -3.824,24.701 0,0"
               style="fill:#f7f7f7;fill-opacity:1;fill-rule:nonzero;stroke:none"
               id="path3808"
               inkscape:connector-curvature="0" />
          </g>
          <g
             id="g3810"
             transform="translate(388.6709,345.3156)">
            <path
               d="m 0,0 c -11.918,-2.308 -23.827,-4.671 -35.772,-6.83 -1.064,-0.192 -2.832,0.611 -3.488,1.522 -7.294,10.14 -14.433,20.393 -20.867,31.315 C -37.604,23.414 -18.166,14.654 -0.021,2.705 -0.014,1.803 -0.007,0.902 0,0"
               style="fill:#f7f7f7;fill-opacity:1;fill-rule:nonzero;stroke:none"
               id="path3812"
               inkscape:connector-curvature="0" />
          </g>
          <g
             id="g3814"
             transform="translate(371.4402,86.9933)">
            <path
               d="m 0,0 c -0.012,-5.726 -1.162,-11.869 -1.174,-17.595 -13.723,-5.033 -26.308,-9.648 -40.031,-14.681 -0.766,0.99 -1.531,1.979 -2.297,2.968 6.964,10.187 13.606,20.628 21.179,30.335 1.426,1.828 6.591,1.101 9.988,0.883 C -8.199,1.644 -4.109,0.669 0,0"
               style="fill:#f7f5f5;fill-opacity:1;fill-rule:nonzero;stroke:none"
               id="path3816"
               inkscape:connector-curvature="0" />
          </g>
          <g
             id="g3818"
             transform="translate(155.708,214.1614)">
            <path
               d="M 0,0 C 8.567,5.269 15.596,9.592 23.414,14.401 V -14.003 C 15.779,-9.437 8.621,-5.156 0,0"
               style="fill:#eeeeee;fill-opacity:1;fill-rule:nonzero;stroke:none"
               id="path3820"
               inkscape:connector-curvature="0" />
          </g>
          <g
             id="g3822"
             transform="translate(447.4271,292.4239)">
            <path
               d="m 0,0 c -1.507,4.807 -3.013,9.614 -4.52,14.421 5.034,0.476 10.068,0.952 15.101,1.429 0.381,-0.821 0.761,-1.641 1.141,-2.461 C 8.779,8.876 5.835,4.363 2.891,-0.151 1.927,-0.1 0.964,-0.05 0,0"
               style="fill:#a74f0a;fill-opacity:1;fill-rule:nonzero;stroke:none"
               id="path3824"
               inkscape:connector-curvature="0" />
          </g>
          <g
             id="g3826"
             transform="translate(138.289,307.1321)">
            <path
               d="M 0,0 H 19.674 C 16.408,-5.88 13.931,-10.341 10.706,-16.148 6.938,-10.465 3.97,-5.989 0,0"
               style="fill:#a74f0a;fill-opacity:1;fill-rule:nonzero;stroke:none"
               id="path3828"
               inkscape:connector-curvature="0" />
          </g>
          <g
             id="g3830"
             transform="translate(478.5504,262.1699)">
            <path
               d="m 0,0 c -5.313,-4.678 -9.126,-8.036 -14.227,-12.528 -1.74,6.047 -3.119,10.841 -5.071,17.624 C -12.427,3.281 -7.366,1.945 0,0"
               style="fill:#ac5007;fill-opacity:1;fill-rule:nonzero;stroke:none"
               id="path3832"
               inkscape:connector-curvature="0" />
          </g>
          <g
             id="g3834"
             transform="translate(265.2018,47.3164)">
            <path
               d="m 0,0 c -5.379,-4.721 -9.339,-8.197 -14.715,-12.916 -1.249,6.573 -2.24,11.79 -3.594,18.914 C -11.756,3.851 -7.22,2.365 0,0"
               style="fill:#ac5007;fill-opacity:1;fill-rule:nonzero;stroke:none"
               id="path3836"
               inkscape:connector-curvature="0" />
          </g>
          <g
             id="g3838"
             transform="translate(333.132,47.6064)">
            <path
               d="M 0,0 C 7.523,2.291 11.951,3.639 18.269,5.563 16.876,-1.129 15.803,-6.284 14.211,-13.937 8.976,-8.803 5.278,-5.177 0,0"
               style="fill:#ac5007;fill-opacity:1;fill-rule:nonzero;stroke:none"
               id="path3840"
               inkscape:connector-curvature="0" />
          </g>
          <g
             id="g3842"
             transform="translate(391.0997,356.819)">
            <path
               d="M 0,0 C -5.881,3.117 -10.168,5.388 -16.15,8.558 -10.156,12.181 -5.634,14.914 0,18.32 Z"
               style="fill:#a74f0a;fill-opacity:1;fill-rule:nonzero;stroke:none"
               id="path3844"
               inkscape:connector-curvature="0" />
          </g>
          <g
             id="g3846"
             transform="translate(148.8884,137.4342)">
            <path
               d="M 0,0 C 3.347,-5.909 5.654,-9.982 8.73,-15.413 H -9.657 C -6.511,-10.392 -3.727,-5.949 0,0"
               style="fill:#ac5007;fill-opacity:1;fill-rule:nonzero;stroke:none"
               id="path3848"
               inkscape:connector-curvature="0" />
          </g>
          <g
             id="g3850"
             transform="translate(122.2755,262.9393)">
            <path
               d="M 0,0 C 4.951,1.226 9.902,2.452 16.703,4.137 15.07,-2.018 13.85,-6.618 12.216,-12.777 7.33,-8.981 3.398,-5.925 -0.535,-2.87 -0.356,-1.913 -0.178,-0.957 0,0"
               style="fill:#ac5007;fill-opacity:1;fill-rule:nonzero;stroke:none"
               id="path3852"
               inkscape:connector-curvature="0" />
          </g>
          <g
             id="g3854"
             transform="translate(376.6904,61.4359)">
            <path
               d="m 0,0 c 0.474,1.145 0.949,2.289 1.423,3.434 3.826,2.025 7.653,4.049 12.731,6.735 V -7.43 C 9.067,-4.76 4.533,-2.38 0,0"
               style="fill:#ac5007;fill-opacity:1;fill-rule:nonzero;stroke:none"
               id="path3856"
               inkscape:connector-curvature="0" />
          </g>
          <g
             id="g3858"
             transform="translate(450.5013,135.7028)">
            <path
               d="m 0,0 c 2.705,-4.122 5.411,-8.243 9.632,-14.674 -6.781,0.32 -11.669,0.551 -16.558,0.782 1.3,4.708 2.599,9.416 3.898,14.123 C -2.019,0.154 -1.009,0.077 0,0"
               style="fill:#ac5007;fill-opacity:1;fill-rule:nonzero;stroke:none"
               id="path3860"
               inkscape:connector-curvature="0" />
          </g>
          <g
             id="g3862"
             transform="translate(138.8637,161.9924)">
            <path
               d="m 0,0 c -6.752,1.275 -11.827,2.233 -16.902,3.191 -0.164,0.874 -0.329,1.749 -0.494,2.623 3.805,3.241 7.609,6.481 12.649,10.772 C -3,10.481 -1.705,5.957 0,0"
               style="fill:#ac5007;fill-opacity:1;fill-rule:nonzero;stroke:none"
               id="path3864"
               inkscape:connector-curvature="0" />
          </g>
          <g
             id="g3866"
             transform="translate(476.1232,165.0868)">
            <path
               d="m 0,0 c -4.931,-0.999 -9.862,-1.998 -16.209,-3.284 1.453,5.73 2.567,10.126 4.185,16.508 C -7.14,9.194 -3.176,5.922 0.788,2.651 0.526,1.767 0.263,0.884 0,0"
               style="fill:#ac5007;fill-opacity:1;fill-rule:nonzero;stroke:none"
               id="path3868"
               inkscape:connector-curvature="0" />
          </g>
          <g
             id="g3870"
             transform="translate(207.5736,52.9156)">
            <path
               d="M 0,0 V 18.52 C 5.107,15.675 9.066,13.468 14.753,10.3 9.453,6.6 5.424,3.787 0,0"
               style="fill:#b35505;fill-opacity:1;fill-rule:nonzero;stroke:none"
               id="path3872"
               inkscape:connector-curvature="0" />
          </g>
          <g
             id="g3874"
             transform="translate(293.5045,245.1733)">
            <path
               d="m 0,0 c 13.573,-16.554 27.147,-33.109 40.72,-49.663 -18.728,-4.567 -37.455,-9.133 -56.182,-13.7 -1.208,1.479 -2.416,2.957 -3.622,4.437 C -12.722,-39.284 -6.361,-19.642 0,0"
               style="fill:#b35505;fill-opacity:1;fill-rule:nonzero;stroke:none"
               id="path3876"
               inkscape:connector-curvature="0" />
          </g>
          <g
             id="g3878"
             transform="translate(278.042,181.8105)">
            <path
               d="M 0,0 C 18.727,4.567 37.455,9.133 56.182,13.7 60.293,7.068 64.404,0.436 68.423,-6.049 47.697,-25.125 12.662,-18.945 0,0"
               style="fill:#f8f6f6;fill-opacity:1;fill-rule:nonzero;stroke:none"
               id="path3880"
               inkscape:connector-curvature="0" />
          </g>
          <g
             id="g3882"
             transform="translate(198.6359,269.6623)">
            <path
               d="M 0,0 C -1.771,9.716 -3.33,19.478 -5.374,29.136 -7.391,38.66 -9.899,48.08 -12.157,57.404 3.18,54.447 17.621,51.663 32.062,48.879 32.008,44.334 31.955,39.79 31.901,35.246 23.027,26.015 14.089,16.845 5.326,7.508 3.247,5.293 1.76,2.518 0,0"
               style="fill:#242a33;fill-opacity:1;fill-rule:nonzero;stroke:none"
               id="path3884"
               inkscape:connector-curvature="0" />
          </g>
          <g
             id="g3886"
             transform="translate(293.5045,245.1733)">
            <path
               d="m 0,0 c -6.361,-19.642 -12.722,-39.284 -19.084,-58.926 -14.727,15.82 -13.84,46.724 1.998,64.582 1.85,2.085 4.461,3.487 7.669,5.928 C -6.846,8.421 -3.423,4.211 0,0"
               style="fill:#f7f5f5;fill-opacity:1;fill-rule:nonzero;stroke:none"
               id="path3888"
               inkscape:connector-curvature="0" />
          </g>
          <g
             id="g3890"
             transform="translate(283.2177,347.527)">
            <path
               d="m 0,0 c 5.037,9.259 10.074,18.519 15.616,28.705 7.777,-12.823 15.119,-24.86 22.381,-36.947 2.122,-3.533 4.013,-7.206 6.01,-10.816 -11.803,0.604 -23.171,1.344 -34.975,1.948 -0.024,0.271 -2.446,2.872 -2.499,4.542 6.749,0 15.4,0.328 23.466,0.328 C 24.669,-3.589 20.518,3.147 16.08,10.349 12.048,4.278 7.957,-1.745 4.301,-7.25 2.722,-5.006 1.578,-2.244 0,0"
               style="fill:#272c35;fill-opacity:1;fill-rule:nonzero;stroke:none"
               id="path3892"
               inkscape:connector-curvature="0" />
          </g>
          <g
             id="g3894"
             transform="translate(249.6031,294.2465)">
            <path
               d="M 0,0 C 8.438,-9.256 15.267,-16.747 21.954,-24.081 16.143,-31.239 10.49,-38.203 3.442,-46.885 -0.452,-31.253 -0.019,-16.694 0,0"
               style="fill:#eeeeee;fill-opacity:1;fill-rule:nonzero;stroke:none"
               id="path3896"
               inkscape:connector-curvature="0" />
          </g>
          <g
             id="g3898"
             transform="translate(328.4639,147.058)">
            <path
               d="M 0,0 C 9.865,4.218 18.143,7.758 27.319,11.681 28.913,5.761 30.727,-0.973 32.958,-9.256 21.343,-5.994 10.991,-3.087 0,0"
               style="fill:#eeeeee;fill-opacity:1;fill-rule:nonzero;stroke:none"
               id="path3900"
               inkscape:connector-curvature="0" />
          </g>
          <g
             id="g3902"
             transform="translate(287.9527,340.7953)">
            <path
               d="M 0,0 C 3.656,5.505 7.313,11.01 11.345,17.08 15.783,9.879 19.934,3.142 25.264,-5.508 H 3.701 C 2.467,-3.672 1.234,-1.836 0,0"
               style="fill:#f7f5f5;fill-opacity:1;fill-rule:nonzero;stroke:none"
               id="path3904"
               inkscape:connector-curvature="0" />
          </g>
          <g
             id="g3906"
             transform="translate(371.4756,110.7686)">
            <path
               d="m 0,0 c -2.927,0.565 -5.853,1.13 -8.78,1.695 2.222,1.718 4.444,3.436 6.666,5.153 C -1.41,4.566 -0.705,2.283 0,0"
               style="fill:#222831;fill-opacity:1;fill-rule:nonzero;stroke:none"
               id="path3908"
               inkscape:connector-curvature="0" />
          </g>
          <g
             id="g3910"
             transform="translate(239.2681,114.3429)">
            <path
               d="m 0,0 c -4.12,-1.35 -8.18,-2.943 -12.373,-4.004 -13.424,-3.396 -26.898,-6.595 -40.352,-9.871 0,0 0.029,-0.029 0.029,-0.029 3.518,16.08 7.063,32.154 10.529,48.246 0.644,2.99 0.973,6.05 1.447,9.079 C -29.998,26.248 -16.888,11.336 0,0"
               style="fill:#252b34;fill-opacity:1;fill-rule:nonzero;stroke:none"
               id="path3912"
               inkscape:connector-curvature="0" />
          </g>
          <g
             id="g3914"
             transform="translate(285.1211,93.0284)">
            <path
               d="M 0,0 C 5.13,-8.332 9.374,-15.226 14.161,-23.001 19.054,-14.727 23.195,-7.723 27.762,0 Z M 42.198,5.72 C 33.004,-9.316 23.81,-24.353 13.783,-40.753 4.258,-24.133 -4.746,-8.421 -13.749,7.29 4.777,2.335 23.455,2.858 42.198,5.72"
               style="fill:#2a3038;fill-opacity:1;fill-rule:nonzero;stroke:none"
               id="path3916"
               inkscape:connector-curvature="0" />
          </g>
          <g
             id="g3918"
             transform="translate(415.468,240.2019)">
            <path
               d="m 0,0 c 6.041,-3.478 12.102,-6.921 18.119,-10.441 8.413,-4.923 16.793,-9.903 26.299,-15.515 -7.344,-4.419 -14.115,-8.464 -20.858,-12.555 -7.83,-4.751 -15.637,-9.541 -23.455,-14.314 0.599,4.517 1.199,9.035 1.798,13.552 8.052,3.963 16.105,7.926 26.557,13.071 C 17.856,-20.489 9.868,-16.185 1.879,-11.88 1.253,-7.92 0.626,-3.96 0,0"
               style="fill:#272c35;fill-opacity:1;fill-rule:nonzero;stroke:none"
               id="path3920"
               inkscape:connector-curvature="0" />
          </g>
          <g
             id="g3922"
             transform="translate(417.3468,228.3218)">
            <path
               d="M 0,0 C 7.989,-4.304 15.978,-8.609 26.582,-14.322 16.129,-19.467 8.076,-23.429 0.024,-27.392 0.515,-21.401 1.253,-15.416 1.397,-9.416 1.472,-6.29 0.499,-3.139 0,0"
               style="fill:#f7f5f5;fill-opacity:1;fill-rule:nonzero;stroke:none"
               id="path3924"
               inkscape:connector-curvature="0" />
          </g>
          <g
             id="g3926"
             transform="translate(186.5428,100.4682)">
            <path
               d="m 0,0 c -0.11,-0.201 -0.22,-0.402 -0.329,-0.603 0.119,0.191 0.238,0.383 0.358,0.574 C 0.029,-0.029 0,0 0,0"
               style="fill:#252b34;fill-opacity:1;fill-rule:nonzero;stroke:none"
               id="path3928"
               inkscape:connector-curvature="0" />
          </g>
          <g
             id="g3930"
             transform="translate(285.1211,93.0284)">
            <path
               d="M 0,0 H 27.762 C 23.195,-7.723 19.054,-14.727 14.161,-23.001 9.374,-15.226 5.13,-8.332 0,0"
               style="fill:#eeeeee;fill-opacity:1;fill-rule:nonzero;stroke:none"
               id="path3932"
               inkscape:connector-curvature="0" />
          </g>
          <g
             id="g3934"
             transform="translate(353.25,375.139)">
            <path
               d="m 0,0 c -5.881,3.117 -14.768,2.191 -20.75,5.361 5.993,3.623 8.413,9.484 14.047,12.889 z"
               style="fill:#a74f0a;fill-opacity:1;fill-rule:nonzero;stroke:none"
               id="path3936"
               inkscape:connector-curvature="0" />
          </g>
        </g>
      </g>
    </g>
  </g>
</svg>
